<svg xmlns="http://www.w3.org/2000/svg" viewBox="0 0 220 180" role="img" aria-label="AirPods">
  <rect width="220" height="180" rx="14" fill="#f6f6f7"/>
  <rect x="58" y="85" width="104" height="64" rx="24" fill="#ffffff" stroke="#e4e4e8" stroke-width="3"/>
  <path d="M76 58c-21-7-31 17-17 31 16 16 46 11 53-7 5-14-11-19-36-24z" fill="#fff" stroke="#dedee5" stroke-width="3"/>
  <path d="M144 58c21-7 31 17 17 31-16 16-46 11-53-7-5-14 11-19 36-24z" fill="#fff" stroke="#dedee5" stroke-width="3"/>
  <rect x="84" y="76" width="18" height="51" rx="9" fill="#fff" stroke="#dfdfe5" stroke-width="3"/>
  <rect x="118" y="76" width="18" height="51" rx="9" fill="#fff" stroke="#dfdfe5" stroke-width="3"/>
  <ellipse cx="83" cy="67" rx="12" ry="7" fill="#11131a" transform="rotate(16 83 67)"/>
  <ellipse cx="137" cy="67" rx="12" ry="7" fill="#11131a" transform="rotate(-16 137 67)"/>
  <rect x="82" y="95" width="56" height="5" rx="3" fill="#f0f0f3"/>
  <circle cx="110" cy="135" r="3" fill="#d6f1df"/>
</svg>
