<svg xmlns="http://www.w3.org/2000/svg" viewBox="0 0 520 360" role="img" aria-label="限时抢购购物车">
  <defs>
    <linearGradient id="cartBody" x1="0" x2="1" y1="0" y2="1">
      <stop stop-color="#ff9b54"/>
      <stop offset="1" stop-color="#ff5b35"/>
    </linearGradient>
    <linearGradient id="gift" x1="0" x2="1">
      <stop stop-color="#ff4a42"/>
      <stop offset="1" stop-color="#ffb13f"/>
    </linearGradient>
    <filter id="softShadow" x="-20%" y="-20%" width="140%" height="140%">
      <feDropShadow dx="0" dy="14" stdDeviation="12" flood-color="#bd240f" flood-opacity=".28"/>
    </filter>
  </defs>
  <ellipse cx="280" cy="314" rx="188" ry="24" fill="#cf2b1f" opacity=".16"/>
  <g filter="url(#softShadow)">
    <path d="M118 151h285l-28 112H146z" fill="url(#cartBody)"/>
    <path d="M103 128h34l16 135" fill="none" stroke="#ffd27a" stroke-width="18" stroke-linecap="round"/>
    <path d="M140 177h244M151 219h221" fill="none" stroke="#ffd27a" stroke-width="10" stroke-linecap="round" opacity=".78"/>
    <circle cx="174" cy="287" r="22" fill="#ff7238" stroke="#ffd27a" stroke-width="10"/>
    <circle cx="348" cy="287" r="22" fill="#ff7238" stroke="#ffd27a" stroke-width="10"/>
  </g>
  <g transform="translate(286 62)">
    <rect x="44" y="36" width="82" height="92" rx="16" fill="#fff0ea"/>
    <rect x="58" y="14" width="54" height="38" rx="17" fill="#ffd4d0"/>
    <circle cx="84" cy="69" r="5" fill="#db8c85"/>
    <circle cx="84" cy="98" r="5" fill="#db8c85"/>
  </g>
  <g transform="translate(242 110)">
    <rect x="12" y="28" width="112" height="80" rx="13" fill="#fff8f5"/>
    <circle cx="45" cy="62" r="23" fill="#ffd5d1"/>
    <circle cx="88" cy="62" r="23" fill="#ffd5d1"/>
    <circle cx="37" cy="57" r="4" fill="#d98582"/>
    <circle cx="79" cy="57" r="4" fill="#d98582"/>
  </g>
  <g transform="translate(116 54)">
    <circle cx="84" cy="84" r="66" fill="#ffe1dc"/>
    <circle cx="84" cy="84" r="50" fill="#fff7f3"/>
    <path d="M84 84 84 48M84 84 118 105" stroke="#ff3b43" stroke-width="8" stroke-linecap="round"/>
    <path d="M33 23c-18 13-27 34-22 52l72-56C71 7 50 10 33 23zM135 23c18 13 27 34 22 52L85 19c12-12 33-9 50 4z" fill="#ff5a66"/>
    <rect x="50" y="140" width="68" height="16" rx="8" fill="#ff8b6b"/>
  </g>
  <g transform="translate(368 78)">
    <rect x="24" y="46" width="82" height="82" rx="10" fill="url(#gift)"/>
    <path d="M65 46v82M24 82h82" stroke="#ffd86f" stroke-width="11"/>
    <path d="M65 45c-28-25-54 4-26 13 14 4 26-13 26-13zm2 0c31-23 53 8 23 15-13 3-23-15-23-15z" fill="#ffd86f"/>
  </g>
</svg>
